<?xml version="1.0" encoding="utf-8"?>
<!-- Generator: Adobe Illustrator 25.0.1, SVG Export Plug-In . SVG Version: 6.00 Build 0)  -->
<svg version="1.1" id="Layer_1" xmlns="http://www.w3.org/2000/svg" xmlns:xlink="http://www.w3.org/1999/xlink" x="0px" y="0px"
	 viewBox="0 0 200 200" style="enable-background:new 0 0 200 200;" xml:space="preserve">
<style type="text/css">
	.st0{fill:#333333;}
</style>
<path class="st0" d="M120.7,154.1c0,11.4,0,22.8,0,34.1c0,3.4-1,6.2-3.6,8.4c-1.8,1.4-3.8,2.1-6.1,2.1c-10.5,0-21,0-31.6,0
	c-4.9,0-9.8-3.6-9.7-10.3c0-5.6,0-11.2,0-16.7c0-17.5,0-34.9,0-52.4c0-1.8,0-1.8-1.8-1.8c-5.4,0-10.8,0-16.2,0
	c-4.9,0-8.5-2.7-9.8-7.4c-0.3-0.9-0.3-2-0.3-2.9c0-9.8,0-19.6,0-29.4c0-5.1,2.6-8.7,7.3-9.9c1.1-0.3,2.2-0.3,3.3-0.3
	c5.3,0,10.6,0,16,0c1.2,0,1.6-0.3,1.6-1.5c0-6-0.1-12,0.2-18c0.6-12.6,4.6-23.9,13.4-33.1C89,9,95.9,5.1,103.7,2.8c4-1.2,8-2,12.1-2
	c9.7,0.1,19.4,0,29.1,0c4.5,0,8,2.9,8.9,7.3c0.2,0.8,0.3,1.7,0.3,2.6c0,9.1,0,18.3,0,27.4c0,4.8-2.6,8.4-7,9.7
	c-1.2,0.3-2.5,0.4-3.7,0.4c-5.8,0.1-11.7,0.1-17.5,0.1c-0.2,0-0.4,0-0.6,0c-3.5,0.5-4.3,0.7-4.4,4.5c-0.1,4.5-0.1,9-0.2,13.5
	c0,1.2,0.6,1.2,1.5,1.2c6.7,0,13.5,0,20.2,0c2.2,0,4.3,0.3,6.1,1.6c3,2,4.4,5,4.4,8.5c0,9.9,0,19.8,0,29.7c0,6-4.2,10.1-10.2,10.1
	c-6.8,0-13.7,0-20.5,0c-1.3,0-1.6,0.4-1.6,1.7C120.7,130.9,120.7,142.5,120.7,154.1z M141.4,79.3c-0.7,0-1.2,0-1.8,0
	c-7.7,0-15.4,0-23.1,0c-4.9,0-7.4-2.6-7.4-7.5s-0.1-9.9,0-14.8c0.1-2.7,0.2-5.4,0.6-8.1c0.6-3.9,2.5-7,5.8-9.2
	c2.9-2,6.2-2.8,9.6-2.9c5.3-0.2,10.6-0.2,15.8-0.2c1.3,0,1.6-0.4,1.6-1.6c-0.1-7.1-0.1-14.3,0-21.4c0-1.3-0.4-1.6-1.6-1.6
	c-6.2,0-12.5-0.1-18.7,0.1c-4.2,0.1-8.4,0.4-12.5,1.2c-7.1,1.3-13.3,4.6-18.2,9.9c-6.6,7.1-9.6,15.8-10,25.3
	c-0.3,7.7-0.1,15.5-0.2,23.2c0,1.3-0.2,2.8-0.8,4c-1.2,2.6-3.6,3.5-6.4,3.5c-6.5,0-13,0-19.4,0c-1.3,0-1.6,0.4-1.6,1.6
	c0.1,7.8,0,15.6,0,23.4c0,1.7,0,1.7,1.7,1.7c6.6,0,13.1,0,19.7,0c3.1,0,5.5,1.6,6.3,4.3c0.3,1.1,0.4,2.3,0.4,3.4c0,24,0,47.9,0,71.9
	c0,1.3,0.3,1.7,1.6,1.7c8.1-0.1,16.1,0,24.2,0c1.9,0,1.9,0,1.9-1.9c0-23.7,0.1-47.5-0.1-71.2c0-4.8,2.2-8.4,8.2-8.2
	c7.5,0.2,15,0,22.5,0.1c1.2,0,1.6-0.3,1.6-1.6c-0.1-7.9,0-15.8,0-23.7C141.4,80.3,141.4,79.9,141.4,79.3z"/>
</svg>
