<?xml version="1.0" encoding="utf-8"?>
<!-- Generator: Adobe Illustrator 25.0.1, SVG Export Plug-In . SVG Version: 6.00 Build 0)  -->
<svg version="1.1" id="Layer_1" xmlns="http://www.w3.org/2000/svg" xmlns:xlink="http://www.w3.org/1999/xlink" x="0px" y="0px"
	 viewBox="0 0 200 200" style="enable-background:new 0 0 200 200;" xml:space="preserve">
<style type="text/css">
	.st0{fill:#333333;}
</style>
<path class="st0" d="M101.9,199c-14.7,0-29.4,0-44.1,0c-10.8,0-20.8-2.9-29.8-9.1c-9.6-6.5-16.3-15.3-20.2-26.3
	c-2-5.8-3-11.7-3-17.8c0-29.7-0.1-59.3,0-89c0.1-16.5,6.5-30.3,19.1-41C31.2,9.6,39.7,5.7,49.3,4.4c3.2-0.4,6.4-0.7,9.6-0.7
	c29-0.1,57.9,0,86.9,0c10.9,0,20.9,2.9,29.9,9c9.6,6.5,16.4,15.3,20.3,26.2c2.1,5.8,3.1,11.8,3.1,17.9c0,29.6,0.1,59.3,0,88.9
	c-0.1,16.5-6.5,30.3-19,41c-7.4,6.3-15.9,10.2-25.5,11.5c-3.4,0.5-6.8,0.7-10.2,0.7C130.1,199,116,199,101.9,199z M16.1,101.2
	c0,14.7,0,29.5,0,44.2c0,7.3,1.5,14.2,5.1,20.5c8.1,13.9,20.2,21.4,36.3,21.5c29.6,0.2,59.1,0.1,88.7,0.1c7.1,0,13.9-1.5,20-5.1
	c13.9-8.1,21.3-20.3,21.4-36.5c0.2-29.7,0.1-59.5,0-89.3c0-9.9-3.1-18.9-9.5-26.5c-8.4-10-19.2-15.1-32.2-15.1
	c-29.3-0.1-58.7-0.1-88,0c-3.3,0-6.7,0.4-10,1.1C40,18,33.3,21.9,27.8,27.7c-8,8.4-11.8,18.5-11.7,30.1
	C16.1,72.3,16.1,86.8,16.1,101.2z"/>
<path class="st0" d="M156.1,107.3c-0.1,29.8-24.5,54.1-54.2,54.1c-29.8-0.1-54.1-24.5-54.1-54.2c0.1-29.8,24.5-54.1,54.2-54.1
	C131.8,53.2,156.2,77.6,156.1,107.3z M102,149.8c23.4-0.1,42.5-19.2,42.5-42.5c0-23.4-19.1-42.5-42.5-42.5
	c-23.4,0-42.6,19.2-42.5,42.6C59.5,130.7,78.7,149.8,102,149.8z"/>
<path class="st0" d="M141.4,50c0.1-8.8,6.8-16,16-16c9,0,16,6.9,16,15.9c0,9-7,15.9-16,16C148.6,65.9,141.4,58.7,141.4,50z
	 M157.2,54.2c2.3,0.1,4.4-1.8,4.5-4.2c0.1-2.3-1.8-4.4-4.2-4.5c-2.3-0.1-4.3,1.8-4.5,4.1C152.9,52,154.8,54.1,157.2,54.2z"/>
</svg>
