<?xml version="1.0" encoding="utf-8"?>
<!-- Generator: Adobe Illustrator 25.0.1, SVG Export Plug-In . SVG Version: 6.00 Build 0)  -->
<svg version="1.1" id="Layer_1" xmlns="http://www.w3.org/2000/svg" xmlns:xlink="http://www.w3.org/1999/xlink" x="0px" y="0px"
	 viewBox="0 0 311 74.7" style="enable-background:new 0 0 311 74.7;" xml:space="preserve">
<style type="text/css">
	.st0{fill:#BABFE1;}
	.st1{fill:#0080C5;}
	.st2{fill:#0080c5;}
</style>
<g>
	<path class="st0" d="M72.2,39.7c1.5,0,2.9,0,4-1.8c1.2-1.8,1.1-2.7,1-3.4c-0.1-1.1,0.1-1.7,1.7-2.7l0.5-0.3
		c1.8-1.1,3.6-2.2,5.4-1.8c1.3,0.3,2.5,1.3,3.6,3.2c2,3.4,6.1,8.1,8.4,8.3c0.4,0,0.7-0.1,1-0.4l0.1-0.1c0,0-0.4-1.2-0.5-1.8
		c-0.6-5.9-2.3-8.6-6.8-10.1c-4.5-1.6-10.2-7.1-12.8-8.4c-2.2-1.1-6.2-4.8-7.1-1.7c-0.5,1.5-4.2,4.9-4.2,8.9c0,2.5,0.3,5,0.5,7.5
		c0.2,2.2,1.4,3.4,2.9,4.9l0.3-0.1C70.8,39.7,71.5,39.7,72.2,39.7z"/>
	<path class="st0" d="M38.5,55.2c0.3,0.1,0.5,0,0.5,0c0.4-0.2,0.5-1.1,0.7-2c0.2-1.4,0.5-2.9,1.7-3.7c0.7-0.5,1.7-0.6,3-0.4
		c0.7,0.2,1.4,0.3,2,0.4c4.2,0.9,5.4,1.2,7-2.1c1.5-3,3.9-2.9,6.2-2.4c-0.9-1.7-1.5-3.5-1.8-5.4c-0.5-3,0-6.5-1.1-9.4
		c-0.9-2.4-8.3,4.3-10,5.1c-2.1,0.9-1.5,2.7-5.1,3.8c-3.7,1.1-5.6,3.8-6.1,8.1c-0.1,0.6-0.4,0.9-0.8,1.3l0.1,0.1
		C35.9,52.4,37.4,54.9,38.5,55.2z"/>
	<path class="st1" d="M90.7,12.5c-2.3-1.5-5-2.3-7.6-3.2c-5.2-1.8-10.6-3.8-16.2-2.4c-3.2,0.8-6,2.4-8.9,4c-4.4,2.4-8.8,4.6-13,7.3
		c-1.2,0.7-2.3,1.6-2.7,3C41.9,23,43.2,25,45,25.3c2.3,0.3,3.8-1.5,5.1-3c1.4-1.5,3.1-2.7,5.1-3c0.7-0.1,1.5-0.2,2.2,0
		c0.5,0.1,1.4,0.5,1.6,1c0,0.1,0,0.3,0,0.4c0,2-0.3,4-0.3,6c-0.1,2.1,0,4.2,0.2,6.3c0.6,4.8,2.2,9.7,5.4,13.5
		c1.5,1.8,2.6,3.7,3.6,6.2c-0.1,0-0.1,0.1-0.2,0.1c-0.8,0.2,2.2,8.4,7,11.7c0.7,0.5,1.3,0.8,1.8,0.8c0,0,0.1,0,0.1,0.1
		c1.3,0.5,3,1.1,4,1.3c1.1,0.2,1.4,0-0.8-1.4c-0.1,0-0.1-0.1-0.2-0.1c-0.5-0.3-1-0.7-1.4-1c0-0.2,0.1-0.4,0.1-0.6
		c0.1-1.4-0.4-3.1-1.1-3.3c-1.1,0-0.8-0.7-1.5-2c-0.7-1.3-1.4-0.8-1.5-2.1c-0.1-1.3-1.7-1.7-1.5-2.9c0.3-1.2-0.9-2.5-0.5-3.8
		c0.4-1.3,0.3-2.1-0.5-1.7c0,0-0.4,0.6-1.1,1.4c-1.5-2.8-3.6-5.2-4.8-8.2c-1.4-3.3-1.7-6.8-1.7-10.3c0-2.3,0.1-4.6,0.3-7
		c0.2-2.1,0.2-4.3,1.4-6.1c0.1-0.2,0.2-0.6,0.4-0.6c0.1,0,0.1,0,0.2-0.1c0.3-0.1,0.6-0.1,0.6-0.1s0.3-0.1,0.6-0.1c0.3,0,0.6,0,0.6,0
		s-0.2-0.2-0.4-0.5c-0.2-0.3-0.3-0.6-0.3-0.6s-0.1-0.2-0.2-0.3c0.2-0.2,0.3-0.5,0.5-0.7c0.2,0.1,0.4,0.1,0.4,0.1s0.3,0.1,0.6,0.2
		c0.3,0.1,0.6,0.3,0.6,0.3s-0.1-0.3-0.1-0.6c0-0.3,0-0.6,0-0.6s0-0.3,0-0.7c0-0.1,0-0.2,0-0.3c0.1-0.1,0.2-0.1,0.3-0.2
		c0.1,0.1,0.2,0.1,0.3,0.2c0.3,0.2,0.5,0.4,0.5,0.4s0.2,0.2,0.5,0.4c0.2,0.2,0.4,0.5,0.4,0.5s0.1-0.3,0.2-0.6
		c0.1-0.3,0.2-0.6,0.2-0.6s0.1-0.3,0.2-0.6c0.1-0.2,0.2-0.4,0.2-0.5c0,0,0,0,0,0c0.1,0.1,0.2,0.3,0.4,0.5c0.2,0.3,0.4,0.5,0.4,0.5
		s0.2,0.3,0.4,0.5C73.8,13.7,74,14,74,14s0.1-0.3,0.3-0.6c0.2-0.3,0.3-0.6,0.3-0.6s0.2-0.3,0.3-0.6c0-0.1,0.1-0.1,0.1-0.2
		c0.1,0,0.3,0.1,0.4,0.1c0,0.1,0.1,0.1,0.1,0.2c0.1,0.3,0.3,0.6,0.3,0.6s0.1,0.3,0.3,0.6c0.1,0.3,0.3,0.6,0.3,0.6s0.2-0.3,0.4-0.5
		c0.2-0.3,0.4-0.5,0.4-0.5s0.1-0.2,0.3-0.4c0.3,0.1,0.5,0.2,0.8,0.2c0.1,0.2,0.1,0.3,0.1,0.3s0.1,0.3,0.2,0.6
		c0.1,0.3,0.2,0.6,0.2,0.6s0.2-0.2,0.4-0.5c0.2-0.2,0.4-0.5,0.4-0.5l0.1-0.2c0.4,0.1,0.7,0.2,1.1,0.3l0,0.1l0.4,1.2l0.9-0.9l0.1-0.1
		c0.4,0.1,0.7,0.2,1.1,0.3l0,0.1l0.3,1.3l0.9-0.9l0.1-0.1c0.4,0.1,0.7,0.2,1.1,0.3l0,0.2l0.4,1.3l0.9-0.9l0.1-0.1
		c0.3,0.1,0.7,0.2,1,0.3l0.1,0.2l0.3,1.3l0.9-0.9l0.1-0.1c0.4,0.1,0.7,0.2,1.1,0.3l0.1,0.2c0,0,0.1,0.3,0.2,0.6c0,0.1,0,0.1,0,0.2
		c0,0.1,0,0.1,0,0.2c0,0.1,0,0.2,0,0.2l1-0.8l0.2-0.2c0.3,0.1,0.6,0.2,0.9,0.3l0.1,0.3l0.2,1.3l1-0.8l0.3-0.2
		c0.4,0.1,0.7,0.3,1.1,0.4C94.4,15.7,92.9,13.9,90.7,12.5z M45.7,23.4c-0.8,0-1.5-0.7-1.5-1.5c0-0.8,0.7-1.5,1.5-1.5
		c0.8,0,1.5,0.7,1.5,1.5C47.2,22.8,46.5,23.4,45.7,23.4z"/>
	<path class="st1" d="M69.5,61.9c-0.6-1.7-1.3-3.5-2-5.2c-1.5-3.3-3.3-6-5.7-8.6c-0.4-0.4-1.1-1.2-1.1-1.2l-0.8-0.1l-0.2,0
		c-2.5-0.7-3.8-0.6-4.8,1.4c-2.2,4.5-4.7,3.9-8.8,3c-0.6-0.1-1.3-0.3-2-0.4c-0.8-0.2-1.3-0.1-1.7,0.1c-0.6,0.4-0.8,1.6-1,2.6
		c-0.2,1.2-0.4,2.4-1.4,3.1c-0.3,0.2-0.7,0.3-1.2,0.3c-0.2,0-0.4,0-0.6-0.1c-2.2-0.5-3.9-4.1-4.9-7.2c-0.3,0.2-0.6,0.4-0.9,0.7
		c-1.1,1-2.4,1.9-3.8,2.7c-0.6,0.3-1.1,0.7-1.7,1c-4,2.2-6,7.9-6.6,12.1c-0.1,0.5-0.1,1,0,1.4c0.2,0.7,1,1.1,1.7,1.2
		c1.3,0.2,2.8-0.3,4.1-0.6c2.3-0.5,4.7-1.4,7-1.4c3.2,0,6.3,1,9.4,1.2c3.4,0.2,6.8-0.1,10.2-0.1c2.5,0,4.9,0.1,7.4,0.3
		c2.3,0.2,4.7,0.9,7,0.6c1.4-0.2,3.5-0.9,3.9-2.5C71.6,64.8,70,63.3,69.5,61.9z"/>
	<path class="st1" d="M114.5,62.7c-1-3.3-2.3-6.8-4.2-9.7c-2.2-3.4-5-5.6-8.7-7.1c-1.1-0.5-1.3-1.2-1.9-2.2
		c-0.3-0.4-0.5-0.9-0.8-1.4c0,0-0.1-0.1-0.1-0.2c-0.5,0.4-1.1,0.7-1.8,0.7c-0.1,0-0.2,0-0.3,0c-3.6-0.3-8.3-6.8-9.7-9.1
		c-0.9-1.4-1.7-2.2-2.5-2.4c-1.2-0.3-2.7,0.6-4.2,1.6l-0.5,0.3c-1,0.6-1,0.7-1,1.2c0.1,0.8,0.2,2.1-1.3,4.4
		c-1.6,2.6-3.8,2.6-5.4,2.6c-0.5,0-1,0-1.4,0.1c0.6,1.3,1.6,3.3,1.6,3.3c0.4,0.7,0.4,2.3,0.6,3.2c0.7,3.1,1.6,5.4,4,7.6
		c1.7,1.6,2.8,3,3.5,5.2c0.5,1.8,1.1,4.1,2.8,5.3c1.5,1,2.9-0.1,4.5,0.3c0.5,0.1,0.8,0.4,1.2,0.7c3.3,2.2,7.4,1.9,11.1,1.8
		c4.1-0.1,8.3-0.1,12.4-0.2c0.8,0,1.7,0,2.5-0.5C117.1,66.9,114.9,64.2,114.5,62.7z"/>
</g>
<g>
	<g>
		<path class="st2" d="M128.2,65v-1.3c0-0.2,0-0.3-0.1-0.4c-0.1-0.1-0.2-0.1-0.4-0.1h-0.8c-1,0-1.5-0.5-1.5-1.5V60
			c0-1,0.5-1.5,1.5-1.5h1.2c1,0,1.6,0.5,1.6,1.5v0.8h-1.5v-0.6c0-0.2,0-0.3-0.1-0.4c-0.1-0.1-0.2-0.1-0.4-0.1h-0.4
			c-0.2,0-0.3,0-0.4,0.1c-0.1,0.1-0.1,0.2-0.1,0.4v1.4c0,0.2,0,0.3,0.1,0.4c0.1,0.1,0.2,0.1,0.4,0.1h0.9c1,0,1.5,0.5,1.5,1.5v1.7
			c0,1-0.5,1.5-1.5,1.5h-1.2c-1,0-1.5-0.5-1.5-1.5v-0.8h1.5V65c0,0.2,0,0.3,0.1,0.4s0.2,0.1,0.4,0.1h0.4c0.2,0,0.3,0,0.4-0.1
			C128.1,65.4,128.2,65.2,128.2,65z"/>
		<path class="st2" d="M136.1,58.5h1.5v8.1h-1.5V66c-0.1,0.4-0.5,0.6-1,0.6h-0.6c-1,0-1.5-0.5-1.5-1.5v-6.7h1.5V65
			c0,0.2,0,0.3,0.1,0.4c0.1,0.1,0.2,0.1,0.4,0.1h0.6c0.2,0,0.3,0,0.4-0.1c0.1-0.1,0.1-0.2,0.1-0.4V58.5z"/>
		<path class="st2" d="M143.6,58.5h0.6c1,0,1.5,0.5,1.5,1.5v5.2c0,1-0.5,1.5-1.5,1.5h-0.6c-0.5,0-0.9-0.2-1-0.6V69h-1.5V58.5h1.5
			v0.6C142.8,58.8,143.1,58.5,143.6,58.5z M144.2,65v-4.7c0-0.2,0-0.3-0.1-0.4c-0.1-0.1-0.2-0.1-0.4-0.1h-0.6c-0.2,0-0.3,0-0.4,0.1
			c-0.1,0.1-0.1,0.2-0.1,0.4v4.5c0,0.2,0,0.4,0.1,0.4c0.1,0.1,0.2,0.1,0.4,0.1h0.6c0.2,0,0.3,0,0.4-0.1
			C144.2,65.3,144.2,65.2,144.2,65z"/>
		<path class="st2" d="M151.7,58.5h0.6c1,0,1.5,0.5,1.5,1.5v5.2c0,1-0.5,1.5-1.5,1.5h-0.6c-0.5,0-0.9-0.2-1-0.6V69h-1.5V58.5h1.5
			v0.6C150.8,58.8,151.1,58.5,151.7,58.5z M152.3,65v-4.7c0-0.2,0-0.3-0.1-0.4c-0.1-0.1-0.2-0.1-0.4-0.1h-0.6c-0.2,0-0.3,0-0.4,0.1
			c-0.1,0.1-0.1,0.2-0.1,0.4v4.5c0,0.2,0,0.4,0.1,0.4c0.1,0.1,0.2,0.1,0.4,0.1h0.6c0.2,0,0.3,0,0.4-0.1
			C152.3,65.3,152.3,65.2,152.3,65z"/>
		<path class="st2" d="M158.7,58.5h1.8c1,0,1.5,0.5,1.5,1.5v5.2c0,1-0.5,1.5-1.5,1.5h-1.8c-1,0-1.5-0.5-1.5-1.5V60
			C157.1,59,157.6,58.5,158.7,58.5z M160.5,65v-4.8c0-0.2,0-0.3-0.1-0.4c-0.1-0.1-0.2-0.1-0.4-0.1h-0.9c-0.2,0-0.3,0-0.4,0.1
			c-0.1,0.1-0.1,0.2-0.1,0.4V65c0,0.2,0,0.3,0.1,0.4c0.1,0.1,0.2,0.1,0.4,0.1h0.9c0.2,0,0.3,0,0.4-0.1
			C160.5,65.3,160.5,65.2,160.5,65z"/>
		<path class="st2" d="M168.3,58.5h0.3v1.3H168c-0.7,0-1,0.4-1,1.2v5.6h-1.5v-8.1h1.5v1c0.1-0.3,0.2-0.5,0.5-0.7
			C167.6,58.6,167.9,58.5,168.3,58.5z"/>
		<path class="st2" d="M174.2,59.8h-1.1v5.1c0,0.2,0,0.3,0.1,0.4c0.1,0.1,0.2,0.1,0.4,0.1h0.6v1.3h-1.1c-1,0-1.6-0.5-1.6-1.5v-5.4
			h-0.8v-1.2h0.8v-1.4h1.5v1.4h1.1V59.8z"/>
		<path class="st2" d="M177.1,57v-1.5h1.6V57H177.1z M178.7,66.7h-1.5v-8.1h1.5V66.7z"/>
		<path class="st2" d="M184.7,58.5h0.6c1,0,1.5,0.5,1.5,1.5v6.6h-1.5v-6.4c0-0.2,0-0.3-0.1-0.4c-0.1-0.1-0.2-0.1-0.4-0.1h-0.6
			c-0.2,0-0.3,0-0.4,0.1c-0.1,0.1-0.1,0.2-0.1,0.4v6.3h-1.5v-8.1h1.5v0.6C183.8,58.8,184.2,58.5,184.7,58.5z"/>
		<path class="st2" d="M193.4,58.5h1.5v9c0,1-0.5,1.5-1.6,1.5h-2.8v-1.2h2.3c0.2,0,0.3,0,0.4-0.1c0.1-0.1,0.1-0.2,0.1-0.4v-1.4
			c-0.1,0.4-0.5,0.6-1,0.6h-0.6c-1,0-1.5-0.5-1.5-1.5V60c0-1,0.5-1.5,1.5-1.5h0.6c0.5,0,0.9,0.2,1,0.6V58.5z M192.2,65.3h0.6
			c0.2,0,0.3,0,0.4-0.1c0.1-0.1,0.1-0.2,0.1-0.4v-4.4c0-0.2,0-0.4-0.1-0.4c-0.1-0.1-0.2-0.1-0.4-0.1h-0.6c-0.2,0-0.3,0-0.4,0.1
			c-0.1,0.1-0.1,0.2-0.1,0.4v4.6c0,0.2,0,0.3,0.1,0.4C191.9,65.3,192,65.3,192.2,65.3z"/>
		<path class="st2" d="M208.5,58.5h0.6c1,0,1.5,0.5,1.5,1.5v6.6h-1.5v-6.4c0-0.2,0-0.3-0.1-0.4c-0.1-0.1-0.2-0.1-0.4-0.1H208
			c-0.4,0-0.5,0.2-0.5,0.6v6.3H206v-6.4c0-0.2,0-0.3-0.1-0.4c-0.1-0.1-0.2-0.1-0.4-0.1h-0.6c-0.2,0-0.3,0-0.4,0.1
			c-0.1,0.1-0.1,0.2-0.1,0.4v6.3h-1.5v-8.1h1.5v0.6c0.1-0.4,0.5-0.6,1-0.6h0.6c0.7,0,1.2,0.2,1.4,0.7
			C207.5,58.8,207.9,58.5,208.5,58.5z"/>
		<path class="st2" d="M215.5,58.5h1.8c1,0,1.5,0.5,1.5,1.5v5.2c0,1-0.5,1.5-1.5,1.5h-1.8c-1,0-1.5-0.5-1.5-1.5V60
			C214,59,214.5,58.5,215.5,58.5z M217.3,65v-4.8c0-0.2,0-0.3-0.1-0.4c-0.1-0.1-0.2-0.1-0.4-0.1h-0.9c-0.2,0-0.3,0-0.4,0.1
			c-0.1,0.1-0.1,0.2-0.1,0.4V65c0,0.2,0,0.3,0.1,0.4c0.1,0.1,0.2,0.1,0.4,0.1h0.9c0.2,0,0.3,0,0.4-0.1
			C217.3,65.3,217.3,65.2,217.3,65z"/>
		<path class="st2" d="M225.4,58.5h1.5v8.1h-1.5V66c-0.1,0.4-0.5,0.6-1,0.6h-0.6c-1,0-1.5-0.5-1.5-1.5v-6.7h1.5V65
			c0,0.2,0,0.3,0.1,0.4c0.1,0.1,0.2,0.1,0.4,0.1h0.6c0.2,0,0.3,0,0.4-0.1c0.1-0.1,0.1-0.2,0.1-0.4V58.5z"/>
		<path class="st2" d="M232.9,58.5h0.6c1,0,1.5,0.5,1.5,1.5v6.6h-1.5v-6.4c0-0.2,0-0.3-0.1-0.4c-0.1-0.1-0.2-0.1-0.4-0.1h-0.6
			c-0.2,0-0.3,0-0.4,0.1c-0.1,0.1-0.1,0.2-0.1,0.4v6.3h-1.5v-8.1h1.5v0.6C232.1,58.8,232.4,58.5,232.9,58.5z"/>
		<path class="st2" d="M241.3,59.8h-1.1v5.1c0,0.2,0,0.3,0.1,0.4c0.1,0.1,0.2,0.1,0.4,0.1h0.6v1.3h-1.1c-1,0-1.6-0.5-1.6-1.5v-5.4
			h-0.8v-1.2h0.8v-1.4h1.5v1.4h1.1V59.8z"/>
		<path class="st2" d="M247.3,58.5h1.5v8.1h-1.5V66c-0.1,0.4-0.5,0.6-1,0.6h-0.6c-1,0-1.5-0.5-1.5-1.5V60c0-1,0.5-1.5,1.5-1.5h0.6
			c0.5,0,0.9,0.2,1,0.6V58.5z M246.2,65.4h0.6c0.2,0,0.3,0,0.4-0.1c0.1-0.1,0.1-0.2,0.1-0.4v-4.5c0-0.2,0-0.4-0.1-0.4
			c-0.1-0.1-0.2-0.1-0.4-0.1h-0.6c-0.2,0-0.3,0-0.4,0.1c-0.1,0.1-0.1,0.2-0.1,0.4V65c0,0.2,0,0.3,0.1,0.4
			C245.8,65.4,246,65.4,246.2,65.4z"/>
		<path class="st2" d="M252.3,57v-1.5h1.6V57H252.3z M253.8,66.7h-1.5v-8.1h1.5V66.7z"/>
		<path class="st2" d="M259.9,58.5h0.6c1,0,1.5,0.5,1.5,1.5v6.6h-1.5v-6.4c0-0.2,0-0.3-0.1-0.4c-0.1-0.1-0.2-0.1-0.4-0.1h-0.6
			c-0.2,0-0.3,0-0.4,0.1c-0.1,0.1-0.1,0.2-0.1,0.4v6.3h-1.5v-8.1h1.5v0.6C259,58.8,259.3,58.5,259.9,58.5z"/>
		<path class="st2" d="M271.4,66.7h-1.5V55.5h1.5V66.7z"/>
		<path class="st2" d="M274.9,57v-1.5h1.6V57H274.9z M276.5,66.7H275v-8.1h1.5V66.7z"/>
		<path class="st2" d="M282.9,56.8h-0.7c-0.2,0-0.3,0-0.4,0.1c-0.1,0.1-0.1,0.2-0.1,0.4v1.3h1.2v1.2h-1.2v6.9h-1.5v-6.9h-0.8v-1.2
			h0.8V57c0-1,0.5-1.5,1.5-1.5h1.1V56.8z"/>
		<path class="st2" d="M287.3,58.5h1.6c1,0,1.6,0.5,1.6,1.5v3h-3.3V65c0,0.2,0,0.3,0.1,0.4c0.1,0.1,0.2,0.1,0.4,0.1h0.8
			c0.2,0,0.3,0,0.4-0.1c0.1-0.1,0.1-0.2,0.1-0.4v-0.7h1.5v0.9c0,1-0.5,1.5-1.5,1.5h-1.6c-1,0-1.5-0.5-1.5-1.5V60
			C285.7,59,286.2,58.5,287.3,58.5z M287.2,62h1.8v-1.8c0-0.2,0-0.3-0.1-0.4c-0.1-0.1-0.2-0.1-0.4-0.1h-0.8c-0.2,0-0.3,0-0.4,0.1
			c-0.1,0.1-0.1,0.2-0.1,0.4V62z"/>
	</g>
</g>
<g>
	<g>
		<path class="st2" d="M125.3,51.9V38h-1.1l-0.1-1.1l1.8-1.6h2.5v16.7H125.3z"/>
		<path class="st2" d="M135.4,51.9v-4.2h-5.1v-2.6l4-9.9h4.1V45h1.8v2.7h-1.8v4.2H135.4z M133.2,45h2.1l0.4-3.8l0.4-3.2h-0.6l-1,3.2
			L133.2,45z"/>
		<path class="st2" d="M147.2,51.9V35.3h4c1.6,0,2.7,0.3,3.4,0.9c0.7,0.6,1.1,1.7,1.1,3.1c0,0.6,0,1.1,0,1.6s0,1,0,1.6
			c-0.1,1.4-0.4,2.5-1.1,3.1c-0.7,0.6-1.8,0.9-3.4,0.9h-0.9v5.3H147.2z M150.3,43.9h0.9c0.9,0,1.3-0.4,1.4-1.1c0-0.5,0-1.1,0-1.8
			c0-0.7,0-1.3,0-1.8c0-0.8-0.5-1.1-1.4-1.1h-0.9V43.9z"/>
		<path class="st2" d="M157.3,51.9V35.3h7.2V38h-4.1v4.1h3.9v2.8h-3.9v4.4h4.1v2.8H157.3z"/>
		<path class="st2" d="M165.8,51.9l2.3-16.7h4.9l2.3,16.7h-3.2l-0.4-3.5h-2.4l-0.4,3.5H165.8z M169.7,45.7h1.8l-0.4-3.7l-0.3-4h-0.6
			l-0.3,4L169.7,45.7z"/>
		<path class="st2" d="M176.6,51.9V35.3h3.3l0,4l-0.6,3.7h0.6l1-3.7l1.5-4h3.4l-2.8,6.9l2.9,9.8h-3.2l-1.8-6.4l-1.2,2.5v3.8H176.6z"
			/>
		<path class="st2" d="M191.2,52.2c-1.5,0-2.6-0.3-3.3-1s-1-1.7-1.1-3.2c0-0.3,0-0.7,0-1.1c0-0.4,0-0.8,0.1-1.1h2.9
			c0,0.5,0,1-0.1,1.5c0,0.5,0,0.9,0.1,1.3c0.1,0.7,0.5,1.1,1.3,1.1c0.4,0,0.7-0.1,0.9-0.3c0.2-0.2,0.3-0.4,0.4-0.8
			c0.1-0.7,0.1-1.4,0-2.1c0-0.3-0.1-0.6-0.3-0.8c-0.2-0.2-0.4-0.4-0.7-0.5l-1.7-0.4c-1.1-0.3-1.8-0.7-2.3-1.4s-0.7-1.5-0.7-2.5
			c0-0.6,0-1.1,0-1.6c0-1,0.2-1.8,0.5-2.4c0.3-0.6,0.8-1.1,1.4-1.3c0.6-0.3,1.5-0.4,2.5-0.4c1.5,0,2.6,0.3,3.2,1s1,1.7,1.1,3.2
			c0,0.3,0,0.7,0,1.1c0,0.4,0,0.8-0.1,1.2h-3c0-0.5,0-1,0.1-1.4c0-0.5,0-1,0-1.4c0-0.3-0.1-0.6-0.4-0.8c-0.2-0.2-0.5-0.3-0.9-0.3
			c-0.4,0-0.7,0.1-0.9,0.3s-0.3,0.4-0.4,0.8c-0.1,0.7-0.1,1.4,0,2.1c0,0.3,0.1,0.5,0.3,0.8c0.2,0.2,0.4,0.4,0.8,0.5l1.5,0.4
			c1.2,0.3,2,0.8,2.4,1.4c0.4,0.7,0.7,1.6,0.7,2.6c0,0.2,0,0.5,0,0.8c0,0.3,0,0.5,0,0.8c-0.1,1.5-0.4,2.6-1.1,3.2
			S192.7,52.2,191.2,52.2z"/>
		<path class="st2" d="M202.3,51.9V35.3h7.2V38h-4.1v4.1h3.9v2.8h-3.9v4.4h4.1v2.8H202.3z"/>
		<path class="st2" d="M210.7,51.9l2.6-8.7l-2.5-8h3.1l1.1,3.9l0.3,2.9h0.4l0.3-2.9l1-3.9h3.1l-2.4,8.1l2.5,8.6H217l-1.1-4.1
			l-0.3-3.1h-0.4l-0.3,3.1l-1.1,4.1H210.7z"/>
		<path class="st2" d="M221.7,51.9V35.3h4c1.6,0,2.7,0.3,3.4,0.9c0.7,0.6,1.1,1.7,1.1,3.1c0,0.6,0,1.1,0,1.6s0,1,0,1.6
			c-0.1,1.4-0.4,2.5-1.1,3.1c-0.7,0.6-1.8,0.9-3.4,0.9h-0.9v5.3H221.7z M224.9,43.9h0.9c0.9,0,1.3-0.4,1.4-1.1c0-0.5,0-1.1,0-1.8
			c0-0.7,0-1.3,0-1.8c0-0.8-0.5-1.1-1.4-1.1h-0.9V43.9z"/>
		<path class="st2" d="M231.9,51.9V35.3h7.2V38H235v4.1h3.9v2.8H235v4.4h4.1v2.8H231.9z"/>
		<path class="st2" d="M240.6,51.9V35.3h4.2c1.6,0,2.7,0.3,3.4,1c0.7,0.7,1.1,1.8,1.1,3.3c0,1,0,1.9,0.1,2.7c0,0.9,0,1.7,0,2.6
			c0,0.9,0,1.8-0.1,2.8c0,1.5-0.4,2.6-1.1,3.3c-0.7,0.7-1.8,1-3.4,1H240.6z M243.7,49.2h1.1c0.9,0,1.3-0.4,1.4-1.2
			c0.1-3,0.1-5.9,0-8.9c0-0.8-0.5-1.1-1.4-1.1h-1.1V49.2z"/>
		<path class="st2" d="M251,51.9V35.3h3.1v16.7H251z"/>
		<path class="st2" d="M258.3,51.9V38h-2.7v-2.8h8.5V38h-2.7v13.9H258.3z"/>
		<path class="st2" d="M265.3,51.9V35.3h3.1v16.7H265.3z"/>
		<path class="st2" d="M274.8,52.2c-1.5,0-2.6-0.3-3.3-1c-0.7-0.6-1-1.7-1.1-3.2c0-1.4,0-2.8,0-4.4s0-3,0-4.4c0-1.5,0.4-2.6,1.1-3.2
			c0.7-0.6,1.8-1,3.3-1c1.5,0,2.6,0.3,3.3,1s1,1.7,1.1,3.2c0.1,1.4,0.1,2.9,0.1,4.4c0,1.5,0,3-0.1,4.3c-0.1,1.5-0.4,2.6-1.1,3.2
			S276.3,52.2,274.8,52.2z M274.8,49.6c0.8,0,1.2-0.4,1.3-1.1c0-0.7,0.1-1.5,0.1-2.3c0-0.8,0-1.7,0-2.6c0-0.9,0-1.8,0-2.6
			c0-0.8,0-1.6-0.1-2.3c0-0.7-0.4-1-1.3-1c-0.8,0-1.2,0.3-1.3,1c0,0.7,0,1.5-0.1,2.3c0,0.8,0,1.7,0,2.6c0,0.9,0,1.8,0,2.6
			c0,0.8,0,1.6,0.1,2.3C273.5,49.3,273.9,49.6,274.8,49.6z"/>
		<path class="st2" d="M280.9,51.9V35.3h4.5l1.3,5.3l1.1,8.6h0.5l-0.6-6.8l-0.3-7.1h3v16.7h-4.8l-1.3-5.5l-0.9-8.5h-0.6l0.5,7.5
			l0.3,6.4H280.9z"/>
	</g>
</g>
</svg>
